TITLE ""
FILE "Disc1Track17.mp3" MP3
  TRACK 01 AUDIO
    TITLE "Disc1Track17_01"
    INDEX 01 00:00:00
  TRACK 02 AUDIO
    TITLE "Disc1Track17_02"
    INDEX 01 00:03:34
  TRACK 03 AUDIO
    TITLE "Disc1Track17_03"
    INDEX 01 00:03:54
  TRACK 04 AUDIO
    TITLE "Disc1Track17_04"
    INDEX 01 00:05:08
  TRACK 05 AUDIO
    TITLE "Disc1Track17_05"
    INDEX 01 00:07:61
  TRACK 06 AUDIO
    TITLE "Disc1Track17_06"
    INDEX 01 00:09:17
  TRACK 07 AUDIO
    TITLE "Disc1Track17_07"
    INDEX 01 00:12:37
  TRACK 08 AUDIO
    TITLE "Disc1Track17_08"
    INDEX 01 00:12:68
  TRACK 09 AUDIO
    TITLE "Disc1Track17_09"
    INDEX 01 00:14:24
  TRACK 10 AUDIO
    TITLE "Disc1Track17_10"
    INDEX 01 00:16:50
  TRACK 11 AUDIO
    TITLE "Disc1Track17_11"
    INDEX 01 00:18:04
  TRACK 12 AUDIO
    TITLE "Disc1Track17_12"
    INDEX 01 00:22:26
  TRACK 13 AUDIO
    TITLE "Disc1Track17_13"
    INDEX 01 00:22:55
  TRACK 14 AUDIO
    TITLE "Disc1Track17_14"
    INDEX 01 00:24:30
  TRACK 15 AUDIO
    TITLE "Disc1Track17_15"
    INDEX 01 00:25:63
  TRACK 16 AUDIO
    TITLE "Disc1Track17_16"
    INDEX 01 00:27:39
  TRACK 17 AUDIO
    TITLE "Disc1Track17_17"
    INDEX 01 00:27:70
  TRACK 18 AUDIO
    TITLE "Disc1Track17_18"
    INDEX 01 00:29:35
  TRACK 19 AUDIO
    TITLE "Disc1Track17_19"
    INDEX 01 00:31:27
  TRACK 20 AUDIO
    TITLE "Disc1Track17_20"
    INDEX 01 00:32:65
  TRACK 21 AUDIO
    TITLE "Disc1Track17_21"
    INDEX 01 00:35:34
  TRACK 22 AUDIO
    TITLE "Disc1Track17_22"
    INDEX 01 00:35:65
  TRACK 23 AUDIO
    TITLE "Disc1Track17_23"
    INDEX 01 00:37:31
  TRACK 24 AUDIO
    TITLE "Disc1Track17_24"
    INDEX 01 00:38:58
  TRACK 25 AUDIO
    TITLE "Disc1Track17_25"
    INDEX 01 00:40:22
  TRACK 26 AUDIO
    TITLE "Disc1Track17_26"
    INDEX 01 00:42:36
  TRACK 27 AUDIO
    TITLE "Disc1Track17_27"
    INDEX 01 00:42:67
  TRACK 28 AUDIO
    TITLE "Disc1Track17_28"
    INDEX 01 00:44:27
  TRACK 29 AUDIO
    TITLE "Disc1Track17_29"
    INDEX 01 00:46:48
  TRACK 30 AUDIO
    TITLE "Disc1Track17_30"
    INDEX 01 00:48:05
  TRACK 31 AUDIO
    TITLE "Disc1Track17_31"
    INDEX 01 00:51:27
  TRACK 32 AUDIO
    TITLE "Disc1Track17_32"
    INDEX 01 00:51:57
  TRACK 33 AUDIO
    TITLE "Disc1Track17_33"
    INDEX 01 00:53:22
  TRACK 34 AUDIO
    TITLE "Disc1Track17_34"
    INDEX 01 00:54:18
  TRACK 35 AUDIO
    TITLE "Disc1Track17_35"
    INDEX 01 00:55:52
  TRACK 36 AUDIO
    TITLE "Disc1Track17_36"
    INDEX 01 00:58:02
  TRACK 37 AUDIO
    TITLE "Disc1Track17_37"
    INDEX 01 00:58:37
  TRACK 38 AUDIO
    TITLE "Disc1Track17_38"
    INDEX 01 01:00:01
  TRACK 39 AUDIO
    TITLE "Disc1Track17_39"
    INDEX 01 01:01:20
  TRACK 40 AUDIO
    TITLE "Disc1Track17_40"
    INDEX 01 01:02:60
  TRACK 41 AUDIO
    TITLE "Disc1Track17_41"
    INDEX 01 01:03:17
  TRACK 42 AUDIO
    TITLE "Disc1Track17_42"
    INDEX 01 01:04:57
  TRACK 43 AUDIO
    TITLE "Disc1Track17_43"
    INDEX 01 01:06:68
  TRACK 44 AUDIO
    TITLE "Disc1Track17_44"
    INDEX 01 01:08:32
  TRACK 45 AUDIO
    TITLE "Disc1Track17_45"
    INDEX 01 01:10:27
  TRACK 46 AUDIO
    TITLE "Disc1Track17_46"
    INDEX 01 01:10:56
  TRACK 47 AUDIO
    TITLE "Disc1Track17_47"
    INDEX 01 01:12:14
  TRACK 48 AUDIO
    TITLE "Disc1Track17_48"
    INDEX 01 01:13:25
  TRACK 49 AUDIO
    TITLE "Disc1Track17_49"
    INDEX 01 01:14:56
